<?xml version="1.0" encoding="UTF-8"?>
<!-- Generated by Pixelmator Pro 3.6.12 -->
<svg width="2956" height="1739" viewBox="0 0 2956 1739" xmlns="http://www.w3.org/2000/svg">
    <path id="Path" fill="#ffffff" stroke="none" d="M 78.906616 1219.655762 C 68.939087 1219.655762 49.779175 1220.805908 42.87854 1220.805908 C 26.785522 1220.805908 13.367798 1220.426758 1.491699 1218.88916 C -0.041626 1218.509766 0.720825 1223.489502 1.491699 1223.489502 C 27.164795 1226.552246 30.998413 1231.540283 30.998413 1268.709961 L 30.998413 1355.329834 C 30.998413 1392.883057 27.164795 1397.866699 1.491699 1400.546143 C 0.720825 1400.546143 -0.041626 1405.530029 1.491699 1405.150879 C 13.367798 1403.613037 31.385986 1403.233887 47.862427 1403.233887 C 59.742554 1403.233887 78.906616 1403.996338 87.719849 1405.150879 C 89.253296 1405.530029 88.486694 1400.546143 87.719849 1400.546143 C 61.280029 1398.24585 58.592407 1390.966309 58.592407 1355.329834 L 58.592407 1268.709961 C 58.592407 1246.866455 58.97583 1238.053223 60.896851 1229.23999 C 64.338745 1228.852295 71.622681 1228.085693 74.689575 1228.085693 C 101.129395 1228.085693 116.080566 1242.270264 116.080566 1272.164551 C 116.080566 1303.587891 99.987549 1319.685303 73.539551 1319.685303 L 70.093384 1319.685303 C 69.32251 1319.685303 69.32251 1323.9021 70.093384 1323.9021 L 73.922974 1323.9021 C 116.463989 1323.9021 144.441284 1300.137451 144.441284 1267.176514 C 144.441284 1237.669922 115.697266 1219.655762 78.906616 1219.655762"/>
    <path id="path1" fill="#ffffff" stroke="none" d="M 399.697998 1367.206543 C 395.476807 1386.37085 394.330811 1393.267334 350.643799 1393.267334 L 336.071777 1393.267334 C 323.049805 1393.267334 319.974609 1389.816895 319.974609 1351.49292 L 319.974609 1312.4021 L 339.905396 1312.4021 C 370.949707 1312.4021 373.249878 1314.319092 375.925171 1329.64917 C 375.925171 1330.028564 380.913086 1330.028564 380.529663 1329.64917 L 380.150391 1312.78125 C 380.150391 1306.272461 380.913086 1294.008789 382.06311 1289.791748 C 382.06311 1288.641602 377.466919 1289.408447 377.466919 1289.791748 C 374.783325 1302.434326 372.479004 1303.968018 339.905396 1303.968018 L 319.974609 1303.968018 L 319.974609 1267.177246 C 319.974609 1248.400879 320.745483 1237.670654 321.895508 1230.774414 L 347.193481 1230.774414 C 384.363281 1230.774414 388.959595 1237.670654 390.880493 1250.700928 C 391.263916 1250.700928 395.860107 1251.084229 395.860107 1250.700928 C 395.476807 1248.400879 395.476807 1239.970947 395.476807 1236.899658 C 395.476807 1231.157715 395.860107 1222.723633 397.014404 1218.506592 C 381.679688 1219.656738 362.519775 1220.806641 342.209839 1220.806641 C 313.844849 1220.806641 281.26709 1220.42334 260.569458 1218.506592 C 259.040161 1218.506592 259.807007 1223.106934 260.569458 1223.490234 C 289.705322 1226.553223 292.380493 1231.157715 292.380493 1268.710938 L 292.380493 1355.326416 C 292.380493 1392.883789 289.705322 1397.09668 260.569458 1400.547119 C 259.807007 1400.547119 259.040161 1405.147461 260.569458 1405.147461 C 281.26709 1403.61377 314.994995 1403.234619 343.355713 1403.234619 C 364.049072 1403.234619 381.679688 1404.768311 392.026489 1404.768311 C 396.247681 1404.768311 397.781128 1403.997314 398.927002 1399.017822 C 400.835571 1393.267334 403.523315 1374.874023 404.677612 1367.594238 C 404.677612 1366.823242 400.072998 1366.823242 399.697998 1367.206543"/>
    <path id="path2" fill="#ffffff" stroke="none" d="M 588.648193 1313.93457 L 576.759521 1313.551514 L 576.759521 1266.030518 C 576.759521 1244.187256 577.909668 1233.073486 579.447266 1227.706543 C 584.435303 1227.322998 585.197754 1226.935791 589.793945 1226.935791 C 622.750977 1226.935791 641.152588 1238.820068 641.152588 1271.781006 C 641.152588 1298.604248 626.588867 1313.93457 588.648193 1313.93457 M 633.864502 1310.867676 C 655.716309 1301.671143 669.121582 1283.277832 669.121582 1264.11377 C 669.121582 1234.223633 642.681885 1218.509766 593.627686 1218.509766 C 562.962646 1218.509766 530.393188 1219.655762 518.504639 1223.489502 C 516.975342 1223.876953 518.129639 1228.468994 518.896362 1228.085693 C 523.109253 1227.322998 526.55957 1226.935791 529.618042 1226.935791 C 543.040039 1226.935791 549.54895 1234.223633 549.54895 1268.709961 L 549.54895 1355.329834 C 549.54895 1392.883057 545.33606 1397.866699 520.042358 1400.546143 C 519.271362 1400.546143 518.504639 1405.530029 520.042358 1405.150879 C 531.930908 1403.613037 549.940674 1403.233887 566.412964 1403.233887 C 578.301514 1403.233887 597.457031 1403.996338 606.270508 1405.150879 C 607.808105 1405.530029 607.04126 1400.546143 606.270508 1400.546143 C 579.826416 1398.24585 576.759521 1390.966309 576.759521 1355.329834 L 576.759521 1321.985352 L 589.023193 1322.364502 C 595.156982 1322.364502 603.974365 1321.2146 610.491699 1319.685303 C 622.750977 1364.905762 657.241455 1409.363525 717.800781 1409.363525 C 719.330078 1409.363525 718.567627 1404.767334 717.800781 1404.767334 C 684.835449 1404.767334 648.049072 1350.725098 633.864502 1310.867676"/>
    <path id="path3" fill="#ffffff" stroke="none" d="M 835.85376 1251.852783 C 835.85376 1233.455322 849.650635 1224.258789 868.043701 1224.258789 C 888.737305 1224.258789 902.538574 1239.589111 905.98877 1261.049316 C 905.98877 1261.816162 910.584961 1261.816162 910.584961 1261.049316 C 910.584961 1242.268555 908.280518 1226.554688 906.36792 1225.400635 C 896.787842 1219.654053 886.445557 1215.062012 870.335693 1215.062012 C 836.999512 1215.062012 814.38501 1241.506104 814.38501 1267.178955 C 814.38501 1319.68335 896.02124 1319.68335 896.02124 1367.591797 C 896.02124 1386.751709 881.841064 1399.781982 861.143311 1399.781982 C 831.257324 1399.781982 816.306152 1376.021484 814.010254 1346.127441 C 814.010254 1345.744141 809.405762 1345.360596 809.405762 1346.514893 C 808.638916 1366.44165 807.113525 1387.518311 808.255615 1388.668457 C 822.819336 1401.31543 838.528809 1408.978516 858.459717 1408.978516 C 893.333496 1408.978516 916.335449 1382.534668 916.335449 1351.87793 C 916.335449 1296.689697 835.85376 1297.839844 835.85376 1251.852783"/>
    <path id="path4" fill="#ffffff" stroke="none" d="M 1127.508545 1400.547119 C 1100.685303 1398.246826 1098.01001 1390.583496 1098.01001 1355.326416 L 1098.01001 1268.710938 C 1098.01001 1233.453857 1100.685303 1225.403076 1127.508545 1223.490234 C 1127.900146 1223.106934 1129.045898 1218.506592 1127.133301 1218.506592 C 1118.699219 1219.656738 1099.147461 1220.806641 1087.66333 1220.806641 C 1071.178711 1220.806641 1053.168701 1220.42334 1041.284424 1218.506592 C 1039.371826 1218.506592 1040.521973 1223.106934 1040.901123 1223.490234 C 1066.573975 1226.169678 1070.415771 1231.157715 1070.415771 1268.710938 L 1070.415771 1355.326416 C 1070.415771 1392.500488 1066.573975 1397.863281 1040.901123 1400.547119 C 1040.521973 1400.547119 1039.371826 1405.147461 1041.284424 1405.147461 C 1053.168701 1403.61377 1071.178711 1403.234619 1087.66333 1403.234619 C 1099.147461 1403.234619 1118.699219 1403.997314 1127.133301 1405.147461 C 1129.045898 1405.147461 1127.900146 1400.547119 1127.508545 1400.547119"/>
    <path id="path5" fill="#ffffff" stroke="none" d="M 1299.210205 1325.43457 L 1329.492188 1256.445557 L 1354.398438 1325.43457 Z M 1394.264404 1355.328857 L 1340.993164 1216.204834 C 1340.601563 1215.062744 1338.309326 1215.062744 1337.917725 1216.204834 L 1276.220947 1355.328857 C 1261.657227 1387.898438 1251.693848 1399.016113 1232.533936 1400.54541 C 1231.76709 1400.54541 1230.996094 1405.149902 1232.533936 1405.149902 C 1244.793457 1403.616455 1247.476807 1403.233154 1263.578125 1403.233154 C 1275.454102 1403.233154 1287.334473 1403.999756 1295.76001 1405.149902 C 1297.297607 1405.149902 1296.918457 1400.54541 1295.76001 1400.54541 C 1282.738037 1399.39917 1275.454102 1398.249268 1275.454102 1391.348877 C 1275.454102 1383.685547 1279.671387 1372.188721 1286.951172 1355.328857 L 1295.76001 1334.248047 L 1357.465332 1334.248047 L 1364.749268 1355.328857 C 1370.116211 1369.505371 1374.329346 1382.918945 1374.329346 1391.732178 C 1374.329346 1399.782715 1366.66626 1399.016113 1352.869141 1400.54541 C 1352.106445 1400.54541 1351.339844 1405.149902 1352.869141 1405.149902 C 1364.749268 1403.616455 1384.680176 1403.233154 1400.773193 1403.233154 C 1413.036865 1403.233154 1429.521484 1403.999756 1438.330566 1405.149902 C 1439.86792 1405.149902 1439.105469 1400.54541 1438.330566 1400.54541 C 1410.744629 1398.249268 1404.986084 1384.069092 1394.264404 1355.328857"/>
    <path id="path6" fill="#ffffff" stroke="none" d="M 1754.522705 1218.508301 C 1746.096924 1219.654053 1733.0625 1220.808594 1721.186523 1220.808594 C 1704.70166 1220.808594 1695.509277 1220.425049 1684.008545 1218.508301 C 1682.474854 1218.508301 1682.858398 1223.108643 1684.008545 1223.488037 C 1709.306396 1226.171387 1713.131592 1234.605469 1713.131592 1268.712402 L 1713.131592 1361.074707 L 1581.683105 1220.808594 C 1565.590088 1220.808594 1544.504883 1220.425049 1532.628906 1218.508301 C 1531.095459 1218.508301 1531.862061 1223.108643 1532.628906 1223.488037 C 1546.04248 1225.02124 1569.802734 1243.422852 1569.802734 1256.828125 L 1569.802734 1355.328125 C 1569.802734 1389.052002 1565.965088 1397.865234 1540.287842 1400.548584 C 1539.525391 1400.548584 1539.14209 1405.148926 1540.287842 1405.148926 C 1552.167969 1403.615723 1564.052246 1403.232178 1580.528809 1403.232178 C 1592.029541 1403.232178 1602.376465 1403.999023 1611.193848 1405.148926 C 1612.727295 1405.148926 1611.960449 1400.548584 1611.568848 1400.548584 C 1584.75 1398.248535 1581.683105 1387.13501 1581.683105 1355.328125 L 1581.683105 1259.89917 L 1722.715576 1407.445068 C 1724.244873 1408.595215 1727.695313 1408.595215 1727.695313 1407.83252 C 1726.161865 1395.569092 1725.399414 1369.504395 1725.399414 1355.328125 L 1725.399414 1268.712402 C 1725.399414 1236.901611 1728.083008 1225.400635 1754.914551 1223.488037 C 1755.289307 1223.108643 1756.443848 1218.508301 1754.522705 1218.508301"/>
    <path id="path7" fill="#ffffff" stroke="none" d="M 2086.048584 1367.97168 C 2082.598145 1384.452393 2080.306396 1392.50293 2035.856934 1392.50293 L 2022.430908 1392.50293 C 2007.871094 1392.50293 2004.8125 1381.772949 2004.8125 1352.641357 L 2004.8125 1268.713135 C 2004.8125 1233.456055 2007.871094 1225.401367 2034.698486 1223.48877 C 2035.081787 1223.105469 2035.856934 1218.509033 2034.315186 1218.509033 C 2025.505859 1219.655029 2006.341797 1220.809326 1994.46167 1220.809326 C 1978.364502 1220.809326 1959.971191 1220.426025 1948.466309 1218.509033 C 1946.553711 1218.509033 1947.320068 1223.105469 1948.091064 1223.48877 C 1973.768311 1226.172119 1977.5896 1231.155762 1977.5896 1268.713135 L 1977.5896 1355.328857 C 1977.5896 1392.88623 1974.531006 1397.094971 1945.407471 1400.54541 C 1945.015869 1400.54541 1943.869873 1405.149902 1945.782715 1405.149902 C 1966.10498 1403.616455 2002.508301 1403.233154 2030.868896 1403.233154 C 2051.56665 1403.233154 2066.888672 1404.766602 2077.239746 1404.766602 C 2081.460938 1404.766602 2082.598145 1403.999756 2084.140381 1399.016113 C 2085.673584 1393.265381 2089.890625 1376.022461 2090.65332 1367.97168 C 2091.036621 1367.205078 2086.048584 1367.205078 2086.048584 1367.97168"/>
    <path id="path8" fill="#ffffff" stroke="none" d="M 2409.912109 1218.890869 C 2401.486572 1220.036621 2388.827148 1220.807617 2377.338867 1220.807617 C 2360.858154 1220.807617 2352.428223 1220.807617 2340.543945 1218.890869 C 2339.006348 1218.507324 2339.397949 1223.491211 2340.543945 1223.491211 C 2365.837891 1226.553955 2369.667236 1232.304443 2369.667236 1266.411377 L 2369.667236 1334.629639 C 2369.667236 1374.874756 2349.744873 1396.330811 2311.412109 1396.330811 C 2281.905518 1396.330811 2252.782227 1376.020752 2252.782227 1330.029297 L 2252.782227 1269.094971 C 2252.782227 1233.45459 2255.45752 1225.787109 2281.905518 1223.491211 C 2283.051514 1223.491211 2283.443359 1218.507324 2281.905518 1218.890869 C 2273.096436 1220.036621 2253.928223 1220.807617 2242.052246 1220.807617 C 2225.567627 1220.807617 2207.557617 1220.807617 2195.67749 1218.890869 C 2194.144043 1218.507324 2194.915039 1223.491211 2195.67749 1223.491211 C 2220.971191 1226.553955 2225.184082 1231.537598 2225.184082 1269.094971 L 2225.184082 1336.546631 C 2225.184082 1381.77124 2261.591309 1408.977783 2303.749023 1408.977783 C 2353.195068 1408.977783 2380.789063 1376.791748 2380.789063 1338.463379 L 2380.789063 1266.411377 C 2380.789063 1234.225342 2383.464111 1225.787109 2410.295654 1223.491211 C 2410.678955 1223.491211 2411.824951 1218.507324 2409.912109 1218.890869"/>
    <path id="path9" fill="#ffffff" stroke="none" d="M 2649.072754 1348.808838 L 2619.557617 1302.821533 L 2643.330566 1268.710449 C 2667.08252 1234.224121 2678.962891 1225.402588 2701.578613 1223.48999 C 2702.73291 1223.106689 2703.10791 1218.506348 2701.578613 1218.506348 C 2692.76123 1219.656494 2686.250488 1220.806396 2673.98291 1220.806396 C 2657.890137 1220.806396 2646.776855 1220.422852 2634.89209 1218.506348 C 2633.354492 1218.506348 2634.121094 1223.106689 2634.89209 1223.48999 C 2655.206543 1225.790283 2659.419434 1229.240479 2631.825195 1268.710449 L 2614.19458 1294.387451 L 2601.547852 1274.844238 C 2575.10791 1233.83667 2575.487061 1225.402588 2596.951416 1223.48999 C 2597.722412 1223.106689 2598.489258 1218.506348 2596.951416 1218.506348 C 2588.138184 1219.656494 2568.974121 1220.806396 2557.093994 1220.806396 C 2540.613281 1220.806396 2526.053955 1220.422852 2514.173584 1218.506348 C 2513.019531 1218.506348 2513.406738 1223.106689 2514.173584 1223.48999 C 2539.083984 1226.169434 2546.359619 1235.749512 2571.657715 1274.844238 L 2596.951416 1315.085205 L 2569.365723 1355.326172 C 2542.905273 1392.883545 2536.783691 1397.863037 2510.723389 1400.546631 C 2509.960938 1400.546631 2509.569092 1405.151123 2510.723389 1405.151123 C 2522.603516 1403.613525 2527.970459 1403.234375 2544.063477 1403.234375 C 2555.939697 1403.234375 2568.974121 1403.996826 2577.399658 1405.151123 C 2578.9375 1405.151123 2578.55835 1400.546631 2577.399658 1400.546631 C 2555.939697 1398.629639 2554.4104 1392.883545 2580.850098 1355.326172 L 2602.701904 1323.514893 L 2618.791016 1348.808838 C 2646.384766 1391.733398 2644.092773 1397.863037 2623.395508 1400.546631 C 2623.007813 1400.546631 2622.245117 1405.151123 2623.778809 1405.151123 C 2635.658691 1403.613525 2656.352539 1403.234375 2672.836914 1403.234375 C 2684.32959 1403.234375 2700.424316 1403.996826 2708.858398 1405.151123 C 2710.770996 1405.151123 2709.633301 1400.546631 2709.241699 1400.546631 C 2682.408691 1398.246338 2673.216309 1386.370361 2649.072754 1348.808838"/>
    <path id="path10" fill="#ffffff" stroke="none" d="M 2948.407715 1367.206543 C 2944.186523 1386.37085 2943.044922 1393.267334 2899.353516 1393.267334 L 2884.781738 1393.267334 C 2871.755859 1393.267334 2868.692383 1389.816895 2868.692383 1351.49292 L 2868.692383 1312.4021 L 2888.619629 1312.4021 C 2919.667969 1312.4021 2921.959961 1314.319092 2924.643066 1329.64917 C 2924.643066 1330.028564 2929.623047 1330.028564 2929.248047 1329.64917 L 2928.860352 1312.78125 C 2928.860352 1306.272461 2929.623047 1294.008789 2930.777344 1289.791748 C 2930.777344 1288.641602 2926.172852 1289.408447 2926.172852 1289.791748 C 2923.48877 1302.434326 2921.193359 1303.968018 2888.619629 1303.968018 L 2868.692383 1303.968018 L 2868.692383 1267.177246 C 2868.692383 1248.400879 2869.455566 1237.670654 2870.609863 1230.774414 L 2895.90332 1230.774414 C 2933.073242 1230.774414 2937.677734 1237.670654 2939.594238 1250.700928 C 2939.969727 1250.700928 2944.574219 1251.084229 2944.574219 1250.700928 C 2944.186523 1248.400879 2944.186523 1239.970947 2944.186523 1236.899658 C 2944.186523 1231.157715 2944.574219 1222.723633 2945.720215 1218.506592 C 2930.385742 1219.656738 2911.229492 1220.806641 2890.915527 1220.806641 C 2862.555176 1220.806641 2829.985352 1220.42334 2809.287598 1218.506592 C 2807.758789 1218.506592 2808.520996 1223.106934 2809.287598 1223.490234 C 2838.411133 1226.553223 2841.094727 1231.157715 2841.094727 1268.710938 L 2841.094727 1355.326416 C 2841.094727 1392.883789 2838.411133 1397.09668 2809.287598 1400.547119 C 2808.520996 1400.547119 2807.758789 1405.147461 2809.287598 1405.147461 C 2829.985352 1403.61377 2863.713379 1403.234619 2892.069824 1403.234619 C 2912.76709 1403.234619 2930.385742 1404.768311 2940.736328 1404.768311 C 2944.95752 1404.768311 2946.495117 1403.997314 2947.632813 1399.017822 C 2949.553711 1393.267334 2952.237305 1374.874023 2953.395508 1367.594238 C 2953.395508 1366.823242 2948.791016 1366.823242 2948.407715 1367.206543"/>
    <path id="path11" fill="#ffffff" stroke="none" d="M 973.985596 1728.015869 C 952.583984 1728.015869 936.324219 1710.368652 936.324219 1687.712646 C 936.324219 1665.060791 952.446289 1647.688477 973.985596 1647.688477 C 987.190918 1647.688477 996.358398 1653.24707 1004.563232 1661.031006 L 1012.068115 1652.963867 C 1002.342285 1643.796387 991.774902 1637.541748 974.127197 1637.541748 C 945.491699 1637.541748 924.92749 1660.19751 924.92749 1687.991943 C 924.92749 1716.064941 945.62915 1738.166748 973.706543 1738.166748 C 991.354004 1738.166748 1002.479736 1731.35376 1012.626465 1721.06958 L 1005.396729 1713.981445 C 996.087646 1722.87793 987.324463 1728.015869 973.985596 1728.015869"/>
    <path id="path12" fill="#ffffff" stroke="none" d="M 1118.932373 1728.015869 C 1096.697021 1728.015869 1080.578857 1709.951904 1080.578857 1687.712646 C 1080.578857 1665.477295 1096.417725 1647.688477 1118.661377 1647.688477 C 1140.892334 1647.688477 1157.014648 1665.756592 1157.014648 1687.991943 C 1157.014648 1710.226807 1141.171631 1728.015869 1118.932373 1728.015869 M 1118.932373 1637.541748 C 1089.33374 1637.541748 1069.182129 1661.031006 1069.182129 1687.991943 C 1069.182129 1714.952393 1089.054443 1738.166748 1118.661377 1738.166748 C 1148.259521 1738.166748 1168.411377 1714.67749 1168.411377 1687.712646 C 1168.411377 1660.747803 1148.534668 1637.541748 1118.932373 1637.541748"/>
    <path id="path13" fill="#ffffff" stroke="none" d="M 1279.86499 1692.303223 L 1244.420166 1639.211426 L 1233.302734 1639.211426 L 1233.302734 1736.494629 L 1244.007813 1736.494629 L 1244.007813 1657.83374 L 1279.998291 1709.813232 L 1315.447266 1657.692139 L 1315.447266 1736.494629 L 1326.423096 1736.494629 L 1326.423096 1639.211426 L 1315.305664 1639.211426 Z"/>
    <path id="path14" fill="#ffffff" stroke="none" d="M 1430.652832 1692.160889 L 1406.608887 1692.160889 L 1406.608887 1649.357178 L 1431.202881 1649.357178 C 1446.912354 1649.357178 1457.338379 1656.582764 1457.338379 1670.621582 C 1457.338379 1683.543457 1446.770752 1692.160889 1430.652832 1692.160889 M 1432.040283 1639.210449 L 1395.624756 1639.210449 L 1395.624756 1736.497803 L 1406.608887 1736.497803 L 1406.608887 1702.166016 L 1430.231689 1702.166016 C 1450.942139 1702.166016 1468.45166 1691.327393 1468.45166 1670.200684 C 1468.45166 1650.886475 1453.996338 1639.210449 1432.040283 1639.210449"/>
    <path id="path15" fill="#ffffff" stroke="none" d="M 1541.135742 1639.210449 L 1530.151611 1639.210449 L 1530.151611 1736.497803 L 1595.890381 1736.497803 L 1595.890381 1726.351318 L 1541.135742 1726.351318 Z"/>
    <path id="path16" fill="#ffffff" stroke="none" d="M 1668.850342 1692.4375 L 1721.942383 1692.4375 L 1721.942383 1682.432617 L 1668.850342 1682.432617 L 1668.850342 1649.213135 L 1728.197021 1649.213135 L 1728.197021 1639.212158 L 1657.866211 1639.212158 L 1657.866211 1736.495605 L 1728.888916 1736.495605 L 1728.888916 1726.490479 L 1668.850342 1726.490479 Z"/>
    <path id="path17" fill="#ffffff" stroke="none" d="M 1871.890869 1639.210449 L 1859.102295 1639.210449 L 1829.499756 1678.959717 L 1799.618164 1639.210449 L 1786.692139 1639.210449 L 1822.690918 1686.877197 L 1785.304443 1736.497803 L 1797.951416 1736.497803 L 1829.087402 1694.665283 L 1860.214844 1736.497803 L 1873.278564 1736.497803 L 1835.89209 1686.739502 Z"/>
    <path id="path18" fill="#ffffff" stroke="none" d="M 1521.656006 657.8125 L 1521.656006 658.94165 L 1626.748047 661.675293 C 1632.777832 619.171631 1638.624023 590.390137 1649.266602 550.870117 L 1648.62085 550.674316 C 1622.406006 605.774658 1595.253906 656.837402 1521.656006 657.8125"/>
    <path id="path19" fill="#ffffff" stroke="none" d="M 1684.749268 410.092285 C 1684.749268 342.203369 1625.173584 298.557861 1536.499268 298.557861 C 1512.251465 298.557861 1466.530762 301.328857 1449.904297 301.328857 C 1425.110596 301.328857 1408.242432 301.053955 1392.086914 299.824707 L 1392.086914 285.306885 C 1392.086914 246.790771 1399.112793 228.760254 1465.588867 220.24292 L 1465.605713 219.942871 C 1445.324707 220.05957 1430.677734 221.051514 1417.651611 221.943115 C 1404.096436 222.855713 1388.724121 223.88916 1367.722412 223.88916 C 1346.737305 223.88916 1331.198486 222.855713 1317.476563 221.943115 L 1284.140381 219.921875 L 1269.251709 219.971924 C 1269.251709 220.005371 1269.251709 220.030273 1269.26416 220.05957 L 1296.678955 225.159912 C 1336.419678 234.910889 1343.412109 252.333008 1343.412109 285.306885 L 1343.412109 597.220459 C 1343.412109 629.486084 1336.182129 647.583252 1296.678955 656.934082 L 1269.26416 661.796875 L 1347.845703 659.601074 C 1356.592285 647.554199 1365.222168 635.19043 1373.501953 621.947754 L 1392.086914 592.157715 L 1392.086914 308.842285 C 1424.7854 315.41333 1427.043945 331.448242 1427.043945 417.022217 L 1427.043945 625.543701 C 1427.043945 731.536133 1424.510498 734.00293 1362.855225 740.932861 C 1361.467529 740.932861 1358.458984 746.083252 1362.613525 745.391602 C 1384.765381 742.691406 1408.663574 741.266113 1436.811768 740.761963 L 1437.245117 738.52832 L 1481.652832 671.085205 C 1481.169434 658.467529 1481.077881 643.487061 1481.077881 625.543701 L 1481.077881 416.330322 C 1481.077881 363.676025 1482.465576 336.656982 1487.315918 315.184326 C 1499.091797 313.109131 1507.401123 312.41333 1518.489258 312.41333 C 1590.537109 312.41333 1629.327881 349.824707 1629.327881 421.176514 C 1629.327881 498.074707 1591.92041 532.711182 1510.172119 532.711182 C 1506.709229 532.711182 1503.246582 532.711182 1499.783691 532.019287 C 1497.704346 532.019287 1497.704346 540.33252 1499.783691 540.33252 L 1510.86792 540.33252 C 1616.860107 540.33252 1684.749268 489.069824 1684.749268 410.092285"/>
    <path id="path20" fill="#ffffff" stroke="none" d="M 1125.765869 955.211426 L 1828.238037 955.211426 L 1828.238037 10.164795 L 1125.765869 10.164795 Z M 1836.567871 963.54126 L 1117.431885 963.54126 L 1117.431885 1.834717 L 1836.567871 1.834717 Z"/>
</svg>
